<svg xmlns="http://www.w3.org/2000/svg" width="1024" height="1024" viewBox="0 0 1024 1024"><rect width="1024" height="1024" fill="#FFFFFF"/><path fill="#174585" fill-rule="evenodd" d="M837.6 201.8C836.5 202.3 834.9 203.2 833.6 204C832.3 204.8 831.1 205.7 829.8 206.6C828.5 207.4 827.3 208.3 826 209.2C824.7 210 823.4 210.8 822.1 211.7C820.8 212.5 819.5 213.3 818.1 214.1C816.8 215 815.5 215.8 814.2 216.6C812.9 217.4 811.5 218.1 810.2 218.9C808.8 219.6 807.5 220.3 806.1 221C804.7 221.7 803.3 222.4 801.9 223C800.5 223.6 799 224.2 797.6 224.8C796.2 225.4 794.7 225.9 793.3 226.5C791.9 227 790.4 227.6 788.9 228.1C787.5 228.6 786 229.1 784.6 229.6C783.2 230.1 781.7 230.6 780.2 231.1C778.8 231.6 777.3 232.1 775.9 232.5C774.4 233 772.9 233.4 771.4 233.8C769.9 234.2 768.5 234.6 767 234.9C765.5 235.3 763.9 235.6 762.4 235.9C760.9 236.3 759.4 236.6 757.9 236.9C756.4 237.2 754.8 237.4 753.3 237.7C751.8 238 750.2 238.2 748.7 238.5C747.2 238.7 745.6 238.9 744.1 239.1C742.5 239.3 741 239.5 739.5 239.6C737.9 239.8 736.4 239.9 734.8 240.1C733.3 240.2 731.7 240.3 730.2 240.4C728.6 240.5 727.1 240.6 725.5 240.7C724 240.8 722.4 240.9 720.8 241C719.3 241.1 717.8 241.2 716.2 241.3C714.7 241.4 713.1 241.5 711.6 241.6C710 241.8 708.5 241.9 706.9 242.1C705.4 242.3 703.9 242.5 702.3 242.7C700.8 242.9 699.3 243.2 697.8 243.5C696.2 243.8 694.7 244.1 693.2 244.4C691.7 244.7 690.2 245.1 688.7 245.4C687.1 245.7 685.6 246.1 684.1 246.4C682.6 246.7 681.1 247 679.5 247.3C678 247.6 676.5 247.9 675 248.3C673.5 248.6 672 248.9 670.5 249.3C669 249.7 667.5 250.1 666 250.5C664.5 250.9 663 251.3 661.5 251.7C660 252.1 658.5 252.5 657 252.9C655.5 253.3 654 253.7 652.5 254.1C651 254.6 649.5 255 648 255.5C646.6 255.9 645.1 256.3 643.6 256.8C642.1 257.3 640.6 257.8 639.2 258.2C637.7 258.7 636.3 259.2 634.8 259.8C633.4 260.3 631.9 260.8 630.5 261.4C629.1 262 627.7 262.6 626.3 263.2C624.9 263.9 623.5 264.5 622.1 265.2C620.7 265.9 619.3 266.5 618 267.2C616.6 267.9 615.2 268.6 613.8 269.3C612.4 269.9 611 270.6 609.6 271.3C608.3 272 606.9 272.7 605.5 273.4C604.1 274.1 602.8 274.8 601.4 275.6C600.1 276.3 598.7 277.1 597.4 277.9C596.1 278.7 594.8 279.5 593.4 280.3C592.2 281.2 590.9 282 589.6 282.9C588.3 283.8 587.1 284.7 585.8 285.6C584.5 286.5 583.3 287.4 582 288.3C580.8 289.2 579.5 290.1 578.3 291.1C577.1 292 575.8 293 574.6 293.9C573.4 294.9 572.2 295.9 571 296.9C569.9 297.9 568.7 298.9 567.6 300C566.4 301 565.3 302.1 564.2 303.2C563.1 304.3 562 305.4 560.9 306.5C559.8 307.6 558.8 308.7 557.7 309.9C556.7 311 555.7 312.2 554.7 313.4C553.7 314.5 552.7 315.7 551.7 316.9C550.7 318.1 549.7 319.3 548.7 320.5C547.8 321.7 546.8 323 545.8 324.1C544.9 325.4 543.9 326.6 542.9 327.8C542 329 541 330.2 540 331.4C539.1 332.6 538.1 333.9 537.2 335.1C536.2 336.3 535.3 337.5 534.4 338.8C533.5 340 532.6 341.3 531.8 342.6C530.9 343.8 530.1 345.1 529.3 346.4C528.5 347.8 527.8 349.1 527 350.4C526.2 351.8 525.5 353.1 524.7 354.5C524 355.8 523.2 357.2 522.5 358.5C521.8 359.9 521 361.3 520.3 362.6C519.6 364 518.9 365.4 518.2 366.8C517.6 368.2 516.9 369.6 516.3 371C515.7 372.4 515.1 373.8 514.5 375.3C514 376.7 513.4 378.2 512.9 379.6C512.4 381.1 511.9 382.5 511.4 384C510.9 385.5 510.5 386.9 510 388.4C509.5 389.8 509 391.3 508.5 392.8C508 394.3 507.5 395.7 507 397.2C506.5 398.7 506 400.1 505.4 401.6C504.9 403 504.4 404.5 503.9 406C503.4 407.4 502.8 408.9 502.3 410.3C501.9 411.8 501.4 413.3 500.9 414.8C500.5 416.2 500 417.7 499.6 419.2C499.2 420.7 498.8 422.2 498.5 423.7C498.1 425.2 497.7 426.7 497.4 428.2C497 429.7 496.7 431.3 496.3 432.8C496 434.3 495.7 435.8 495.4 437.3C495.1 438.9 494.8 440.4 494.5 441.9C494.2 443.4 493.9 445 493.7 446.5C493.4 448 493.2 449.6 492.9 451.1C492.7 452.6 492.4 454.1 492.2 455.7C491.9 457.2 491.7 458.7 491.4 460.3C491.2 461.8 490.9 463.3 490.6 464.9C490.3 466.4 490 467.9 489.8 469.4C489.5 471 489.2 472.5 488.9 474C488.6 475.6 488.4 477.1 488.1 478.6C487.9 480.2 487.6 481.7 487.4 483.2C487.2 484.8 487 486.3 486.8 487.9C486.6 489.4 486.5 490.9 486.3 492.5C486.2 494 486 495.6 485.9 497.1C485.8 498.7 485.7 500.2 485.6 501.8C485.4 503.3 485.3 505.1 485.1 506.4C484.8 507.7 484.3 508.9 484 509.4C483.6 509.8 483.6 509.6 482.8 509.1C482 508.7 480.1 507.7 479 506.7C478 505.7 477.2 504.3 476.5 503C475.7 501.7 475.1 500.3 474.4 498.9C473.8 497.5 473.1 496.1 472.4 494.7C471.8 493.3 471.1 491.9 470.5 490.5C469.8 489.1 469.2 487.7 468.5 486.3C467.9 484.9 467.3 483.4 466.6 482C466 480.6 465.4 479.2 464.7 477.8C464.1 476.4 463.5 475 462.8 473.6C462.2 472.2 461.5 470.8 460.8 469.4C460.2 468 459.5 466.7 458.8 465.3C458.1 463.9 457.3 462.6 456.6 461.2C455.9 459.8 455.2 458.5 454.5 457.1C453.8 455.7 453.1 454.3 452.4 453C451.6 451.6 450.9 450.3 450.2 448.9C449.5 447.5 448.7 446.2 448 444.8C447.2 443.5 446.4 442.1 445.6 440.8C444.8 439.5 444 438.2 443.2 436.8C442.3 435.5 441.5 434.2 440.6 432.9C439.8 431.7 438.9 430.4 438 429.1C437.1 427.8 436.2 426.6 435.3 425.3C434.4 424.1 433.4 422.9 432.5 421.6C431.5 420.4 430.5 419.2 429.5 418.1C428.5 416.9 427.4 415.7 426.4 414.6C425.3 413.5 424.2 412.3 423.2 411.2C422.1 410.1 421 409 419.9 407.9C418.7 406.9 417.6 405.8 416.5 404.7C415.3 403.7 414.2 402.6 413 401.6C411.9 400.6 410.7 399.6 409.5 398.6C408.3 397.6 407.1 396.6 405.9 395.7C404.7 394.7 403.4 393.8 402.2 392.9C400.9 392 399.7 391.1 398.4 390.3C397.1 389.5 395.8 388.7 394.5 387.9C393.2 387.1 391.8 386.3 390.5 385.5C389.2 384.8 387.8 384 386.5 383.2C385.1 382.5 383.8 381.7 382.4 380.9C381.1 380.2 379.7 379.5 378.4 378.7C377 378 375.6 377.3 374.2 376.7C372.8 376 371.4 375.3 370 374.7C368.6 374.1 367.2 373.5 365.7 372.9C364.3 372.4 362.9 371.8 361.4 371.3C359.9 370.8 358.5 370.3 357 369.8C355.5 369.3 354.1 368.8 352.6 368.3C351.1 367.9 349.6 367.4 348.1 367C346.7 366.5 345.2 366.1 343.7 365.7C342.2 365.2 340.7 364.8 339.2 364.5C337.7 364.1 336.2 363.7 334.7 363.3C333.2 362.9 331.7 362.5 330.2 362.1C328.7 361.8 327.2 361.4 325.7 361C324.2 360.7 322.7 360.4 321.2 360.1C319.7 359.8 318.1 359.5 316.6 359.3C315.1 359.1 313.5 358.9 312 358.8C310.4 358.6 308.9 358.5 307.3 358.5C305.8 358.4 304.2 358.3 302.7 358.3C301.1 358.2 299.6 358.2 298 358.1C296.5 358.1 294.9 358.1 293.4 358.1C291.8 358.1 290.3 358.1 288.7 358.1C287.1 358.1 285.6 358.1 284 358.1C282.5 358.2 280.9 358.2 279.4 358.3C277.8 358.3 276.3 358.4 274.7 358.5C273.2 358.6 271.7 358.7 270.1 358.9C268.6 359 267 359.2 265.5 359.4C263.9 359.6 262.4 359.8 260.9 360C259.3 360.3 257.8 360.5 256.3 360.8C254.8 361.1 253.2 361.4 251.7 361.7C250.2 362 248.7 362.3 247.1 362.6C245.6 362.9 244.1 363.2 242.6 363.5C241.1 363.8 239.6 364.1 238.1 364.5C236.7 364.9 235.2 365.3 233.9 365.9C232.6 366.4 231.4 367 230.3 367.7C229.3 368.4 228.3 369.2 227.7 370.1C227 371 226.6 372.1 226.4 373.2C226.2 374.2 226.2 375.4 226.5 376.7C226.7 377.9 227.2 379.1 227.7 380.4C228.3 381.7 229 383 229.8 384.3C230.5 385.5 231.3 386.9 232.1 388.1C232.9 389.4 233.7 390.7 234.6 392C235.4 393.3 236.3 394.6 237.1 395.9C238 397.2 238.8 398.5 239.7 399.8C240.5 401.1 241.4 402.4 242.3 403.7C243.1 405 244 406.3 244.8 407.6C245.7 408.9 246.5 410.2 247.3 411.5C248.2 412.8 249 414.1 249.8 415.4C250.6 416.8 251.3 418.1 252.1 419.4C252.9 420.8 253.7 422.1 254.5 423.4C255.3 424.7 256.1 426 257 427.4C257.8 428.7 258.6 430 259.5 431.3C260.3 432.6 261.1 433.9 262 435.2C262.8 436.5 263.7 437.8 264.5 439.1C265.4 440.4 266.2 441.6 267.1 442.9C267.9 444.2 268.8 445.5 269.7 446.8C270.6 448 271.5 449.3 272.4 450.5C273.3 451.8 274.2 453 275.2 454.2C276.1 455.4 277.1 456.7 278 457.9C279 459.1 280 460.3 280.9 461.5C281.9 462.7 282.9 463.9 283.9 465C284.9 466.2 285.9 467.4 287 468.5C288 469.6 289.1 470.7 290.2 471.8C291.3 472.8 292.5 473.8 293.6 474.9C294.8 475.9 296 476.8 297.2 477.8C298.4 478.8 299.6 479.7 300.9 480.6C302.1 481.6 303.4 482.5 304.7 483.3C305.9 484.2 307.2 485 308.6 485.8C309.9 486.6 311.2 487.4 312.6 488.2C313.9 488.9 315.3 489.6 316.7 490.3C318.1 491 319.5 491.7 320.8 492.3C322.2 493 323.7 493.6 325.1 494.3C326.5 494.9 327.9 495.5 329.3 496.2C330.7 496.8 332.1 497.4 333.5 497.9C335 498.5 336.4 499.1 337.8 499.6C339.2 500.1 340.7 500.6 342.2 501.1C343.6 501.5 345.1 502 346.6 502.4C348.1 502.8 349.5 503.3 351 503.6C352.5 504 354 504.4 355.5 504.7C357.1 505 358.6 505.3 360.1 505.5C361.6 505.7 363.2 505.9 364.7 506.1C366.2 506.3 367.8 506.5 369.3 506.6C370.9 506.8 372.4 506.9 374 507.1C375.5 507.2 377.1 507.4 378.6 507.5C380.2 507.7 381.7 507.9 383.2 508.1C384.8 508.2 386.3 508.4 387.9 508.7C389.4 508.9 391 509.1 392.5 509.3C394 509.5 395.6 509.8 397.1 510C398.6 510.2 400.2 510.5 401.7 510.7C403.2 511 404.7 511.2 406.3 511.4C407.8 511.6 409.4 511.8 410.9 512C412.4 512.2 414 512.6 415.5 512.4C416.9 512.3 418.9 511.3 419.6 511C420.4 510.7 420 511.2 420.1 510.5C420.1 509.8 420.3 508.1 419.9 506.8C419.5 505.5 418.5 504.1 417.8 502.7C417.1 501.3 416.4 499.9 415.7 498.5C415 497.2 414.2 495.8 413.4 494.5C412.6 493.2 411.8 491.9 411 490.6C410.1 489.3 409.3 488 408.4 486.7C407.6 485.4 406.7 484.1 405.8 482.9C404.9 481.6 404 480.3 403 479.1C402.1 477.8 401.2 476.6 400.2 475.4C399.3 474.2 398.3 473 397.3 471.8C396.3 470.6 395.2 469.5 394.2 468.3C393.2 467.1 392.1 466 391.1 464.9C390 463.7 388.9 462.6 387.9 461.5C386.8 460.3 385.7 459.2 384.6 458.1C383.5 457 382.4 455.9 381.3 454.8C380.2 453.8 379.1 452.7 377.9 451.7C376.8 450.6 375.6 449.6 374.5 448.6C373.3 447.5 372.1 446.5 371 445.5C369.8 444.5 368.6 443.5 367.4 442.5C366.2 441.6 364.9 440.6 363.7 439.7C362.4 438.8 361.2 437.9 359.9 437C358.6 436.1 357.4 435.3 356.1 434.4C354.8 433.5 353.5 432.7 352.2 431.8C350.9 431 349.6 430.1 348.3 429.3C347 428.5 345.7 427.7 344.4 426.9C343.1 426.1 341.7 425.3 340.4 424.5C339 423.7 337.7 423 336.4 422.3C335 421.5 333.6 420.8 332.3 420.1C330.9 419.4 329.5 418.7 328.1 418C326.7 417.3 325.4 416.6 324 415.9C322.6 415.2 321.2 414.5 319.8 413.9C318.4 413.2 316.5 412.8 315.6 412.1C314.6 411.4 314.1 410.3 313.9 409.7C313.8 409.2 313.9 409.1 314.8 408.8C315.7 408.4 317.6 407.8 319.1 407.6C320.6 407.5 322.2 407.8 323.7 408C325.2 408.3 326.7 408.6 328.2 409C329.7 409.3 331.2 409.8 332.7 410.2C334.2 410.7 335.6 411.2 337.1 411.7C338.5 412.2 340 412.7 341.4 413.2C342.9 413.8 344.3 414.4 345.7 415C347.1 415.6 348.5 416.2 349.9 416.8C351.3 417.5 352.7 418.1 354.1 418.8C355.4 419.4 356.8 420.1 358.2 420.8C359.6 421.4 361 422.1 362.4 422.8C363.7 423.5 365.1 424.2 366.5 424.9C367.8 425.6 369.2 426.4 370.6 427.1C371.9 427.9 373.2 428.7 374.6 429.5C375.9 430.3 377.2 431.1 378.5 431.9C379.8 432.7 381.1 433.6 382.4 434.4C383.7 435.3 385 436.1 386.3 437C387.6 437.9 388.8 438.7 390.1 439.6C391.4 440.5 392.6 441.4 393.9 442.3C395.1 443.3 396.3 444.2 397.5 445.2C398.7 446.1 399.9 447.1 401.1 448.1C402.3 449.1 403.4 450.1 404.6 451.2C405.8 452.1 406.9 453.2 408.1 454.2C409.2 455.2 410.4 456.3 411.5 457.4C412.6 458.4 413.7 459.5 414.8 460.6C415.9 461.7 417 462.8 418.1 463.9C419.2 465.1 420.2 466.2 421.2 467.4C422.3 468.5 423.3 469.7 424.3 470.9C425.3 472 426.3 473.2 427.2 474.4C428.2 475.6 429.2 476.9 430.1 478.1C431 479.3 432 480.6 432.9 481.8C433.8 483.1 434.7 484.3 435.6 485.6C436.5 486.9 437.3 488.1 438.2 489.4C439 490.7 439.9 492 440.7 493.3C441.5 494.7 442.3 496 443 497.3C443.8 498.7 444.5 500.1 445.3 501.4C446 502.8 446.7 504.2 447.3 505.6C448 507 448.7 508.4 449.3 509.8C450 511.2 450.6 512.6 451.3 514C451.9 515.4 452.5 516.8 453.2 518.2C453.8 519.6 454.4 521 455 522.5C455.6 523.9 456.1 525.3 456.7 526.8C457.2 528.2 457.8 529.7 458.3 531.1C458.8 532.6 459.2 534.1 459.7 535.6C460.1 537 460.6 538.5 461 540C461.4 541.5 461.8 543 462.1 544.5C462.5 546 462.9 547.6 463.2 549.1C463.6 550.6 464 552.1 464.3 553.6C464.7 555.1 465.1 556.6 465.4 558.1C465.8 559.6 466.1 561.1 466.4 562.6C466.7 564.2 467 565.7 467.3 567.2C467.5 568.7 467.8 570.3 468 571.8C468.2 573.3 468.4 574.9 468.6 576.4C468.7 578 468.9 579.5 469.1 581C469.2 582.6 469.4 584.1 469.5 585.7C469.7 587.2 469.9 588.8 470 590.3C470.1 591.9 470.3 593.4 470.4 595C470.5 596.5 470.6 598.1 470.7 599.6C470.8 601.2 470.9 602.7 470.9 604.3C471 605.8 471.1 607.4 471.1 608.9C471.1 610.5 471.1 612 471.1 613.6C471.1 615.1 471.1 616.7 471 618.2C470.9 619.8 470.8 621.3 470.7 622.9C470.6 624.4 470.5 626 470.3 627.5C470.2 629.1 470 630.6 469.9 632.2C469.7 633.7 469.5 635.3 469.4 636.8C469.2 638.4 469.1 639.9 468.9 641.5C468.8 643 468.6 644.5 468.5 646.1C468.3 647.6 468.2 649.2 468.1 650.7C468 652.3 467.8 653.8 467.7 655.4C467.5 656.9 467.4 658.5 467.2 660C467.1 661.6 466.9 663.1 466.7 664.6C466.5 666.2 466.3 667.7 466.1 669.3C465.9 670.8 465.7 672.3 465.4 673.9C465.2 675.4 465 677 464.8 678.5C464.6 680 464.4 681.6 464.2 683.1C464 684.7 463.8 686.2 463.6 687.7C463.4 689.3 463.2 690.8 463 692.4C462.8 693.9 462.6 695.5 462.4 697C462.1 698.5 461.9 700.1 461.6 701.6C461.3 703.1 461 704.6 460.7 706.1C460.3 707.6 459.9 709.1 459.5 710.6C459.1 712.1 458.7 713.6 458.2 715.1C457.8 716.5 457.3 718 456.8 719.5C456.3 721 455.8 722.4 455.3 723.9C454.8 725.3 454.2 726.8 453.6 728.2C453.1 729.6 452.5 731.1 452 732.5C451.4 734 450.8 735.4 450.2 736.8C449.7 738.3 449.1 739.7 448.5 741.1C447.9 742.6 447.3 744 446.7 745.4C446.1 746.8 445.5 748.3 444.8 749.7C444.1 751 443.4 752.4 442.7 753.8C442 755.2 441.2 756.5 440.4 757.8C439.6 759.2 438.8 760.5 437.9 761.7C437.1 763 436.2 764.3 435.2 765.5C434.3 766.8 433.3 768 432.3 769.1C431.3 770.3 430.3 771.5 429.2 772.5C428.2 773.6 427.1 774.7 425.9 775.7C424.8 776.7 423.6 777.7 422.3 778.6C421.1 779.5 419.8 780.3 418.5 781.1C417.2 781.9 415.8 782.6 414.5 783.3C413.1 783.9 411.7 784.5 410.2 785C408.8 785.5 407.3 785.9 405.9 786.2C404.4 786.6 402.9 786.8 401.4 787C399.9 787.2 398.4 787.3 396.8 787.4C395.3 787.4 393.8 787.4 392.3 787.3C390.7 787.2 389.2 787 387.7 786.7C386.2 786.5 384.8 786.1 383.3 785.7C381.9 785.3 380.4 784.8 379.1 784.2C377.7 783.6 376.3 782.9 375 782.1C373.8 781.3 372.5 780.5 371.3 779.6C370.1 778.7 369 777.6 368 776.6C366.9 775.5 365.9 774.4 365 773.2C364.1 772 363.2 770.8 362.5 769.5C361.7 768.2 361 766.8 360.3 765.5C359.6 764.1 359.1 762.7 358.5 761.3C358 759.8 357.6 758.4 357.2 756.9C356.8 755.4 356.4 753.9 356.2 752.4C355.9 750.9 355.7 749.3 355.5 747.8C355.4 746.3 355.3 744.8 355.2 743.2C355.2 741.7 355.2 740.1 355.3 738.6C355.4 737.1 355.6 735.5 355.8 734C356 732.5 356.2 731 356.6 729.5C356.9 728 357.3 726.4 357.7 725C358.1 723.5 358.5 722 359 720.5C359.5 719.1 360.1 717.6 360.7 716.2C361.2 714.8 361.9 713.4 362.5 712C363.2 710.6 363.9 709.2 364.6 707.8C365.3 706.5 366 705.1 366.8 703.7C367.5 702.4 368.3 701 369.1 699.7C369.9 698.4 370.7 697.1 371.6 695.8C372.5 694.5 373.4 693.3 374.3 692.1C375.2 690.8 376.2 689.6 377.1 688.4C378.1 687.2 379.1 686 380.1 684.9C381.1 683.7 382.1 682.5 383.1 681.4C384.1 680.2 385.2 679.1 386.2 678C387.3 676.8 388.3 675.7 389.4 674.6C390.5 673.5 391.6 672.4 392.7 671.3C393.8 670.2 394.9 669.2 396 668.1C397.1 667 398.3 666 399.4 664.9C400.5 663.8 401.6 662.8 402.7 661.7C403.8 660.6 405 659.6 406.1 658.5C407.2 657.5 408.4 656.4 409.5 655.4C410.6 654.4 411.8 653.3 412.9 652.3C414.1 651.2 415.2 650.2 416.3 649.1C417.4 648 418.5 647 419.6 645.9C420.7 644.8 421.8 643.7 422.9 642.6C424 641.5 425 640.4 426.1 639.2C427.1 638 428.1 636.9 429 635.7C430 634.5 430.9 633.2 431.8 632C432.7 630.7 433.5 629.4 434.3 628.1C435.2 626.8 436 625.5 436.7 624.2C437.5 622.8 438.2 621.5 438.9 620.1C439.6 618.7 440.3 617.3 440.9 615.9C441.5 614.5 442.1 613.1 442.6 611.6C443.1 610.2 443.6 608.7 444 607.3C444.4 605.8 444.8 604.3 445.1 602.8C445.4 601.3 445.6 599.8 445.8 598.2C446 596.7 446.3 595.2 446.4 593.6C446.6 592.1 446.7 590.5 446.7 589C446.8 587.5 446.9 585.9 446.8 584.4C446.7 582.9 446.7 581.1 446.1 579.9C445.6 578.8 443.9 578 443.3 577.6C442.7 577.2 443.4 577.1 442.7 577.5C442 577.9 440.2 579 439.1 580C438.1 581 437.3 582.4 436.4 583.7C435.5 584.9 434.5 586.2 433.6 587.4C432.7 588.6 431.8 589.9 430.8 591.1C429.9 592.3 428.9 593.5 427.9 594.7C426.8 595.8 425.8 597 424.8 598.1C423.7 599.3 422.6 600.4 421.6 601.5C420.5 602.6 419.3 603.6 418.2 604.7C417.1 605.8 415.9 606.8 414.8 607.8C413.6 608.9 412.5 609.9 411.3 610.9C410.1 611.9 408.9 612.9 407.7 613.9C406.5 614.8 405.3 615.8 404 616.7C402.8 617.6 401.5 618.5 400.3 619.5C399.1 620.4 397.8 621.3 396.5 622.2C395.3 623.1 394 624 392.7 624.9C391.5 625.8 390.2 626.6 388.9 627.5C387.6 628.4 386.4 629.3 385.1 630.2C383.8 631.1 382.5 631.9 381.3 632.8C380 633.7 378.7 634.6 377.4 635.5C376.2 636.4 374.9 637.3 373.7 638.2C372.4 639.1 371.2 640.1 370 641C368.8 642 367.6 643 366.4 643.9C365.2 644.9 364 645.9 362.8 646.9C361.6 647.9 360.4 648.9 359.3 649.9C358.1 650.9 357 651.9 355.8 653C354.7 654 353.6 655.1 352.5 656.2C351.4 657.2 350.3 658.3 349.2 659.4C348.1 660.5 347.1 661.7 346 662.8C345 663.9 343.9 665 342.9 666.2C341.8 667.3 340.8 668.5 339.8 669.6C338.7 670.8 337.7 672 336.8 673.2C335.8 674.4 334.9 675.6 334 676.8C333 678.1 332.1 679.3 331.2 680.6C330.3 681.8 329.4 683.1 328.6 684.4C327.7 685.6 326.8 686.9 326 688.2C325.1 689.5 324.3 690.8 323.5 692.1C322.7 693.4 321.9 694.7 321.1 696.1C320.3 697.4 319.5 698.7 318.8 700.1C318 701.4 317.3 702.8 316.6 704.2C316 705.5 315.3 706.9 314.7 708.3C314.1 709.7 313.5 711.1 312.9 712.6C312.4 714 311.8 715.5 311.3 716.9C310.8 718.4 310.3 719.9 309.9 721.3C309.5 722.8 309 724.3 308.7 725.8C308.3 727.3 308 728.8 307.6 730.3C307.3 731.9 307 733.4 306.7 734.9C306.5 736.4 306.2 738 306 739.5C305.8 741 305.6 742.6 305.4 744.1C305.3 745.7 305.1 747.2 305 748.7C305 750.3 304.9 751.8 304.9 753.4C304.9 754.9 304.9 756.5 305 758C305.1 759.6 305.2 761.1 305.4 762.6C305.6 764.2 305.8 765.7 306 767.2C306.3 768.7 306.6 770.3 306.9 771.8C307.2 773.2 307.6 774.7 308 776.2C308.4 777.7 308.8 779.2 309.2 780.7C309.7 782.2 310.2 783.6 310.7 785.1C311.2 786.5 311.8 788 312.3 789.4C312.9 790.8 313.5 792.2 314.2 793.6C314.9 795 315.6 796.4 316.3 797.7C317 799 317.8 800.3 318.7 801.6C319.5 802.9 320.4 804.1 321.4 805.4C322.3 806.6 323.3 807.8 324.3 809C325.3 810.1 326.3 811.3 327.4 812.4C328.4 813.5 329.5 814.6 330.6 815.7C331.7 816.8 332.9 817.9 334 818.9C335.2 819.9 336.3 821 337.5 821.9C338.7 822.9 339.9 823.9 341.2 824.8C342.4 825.7 343.7 826.6 345 827.4C346.3 828.2 347.6 829 349 829.8C350.3 830.6 351.7 831.3 353 832C354.4 832.7 355.8 833.3 357.2 833.9C358.7 834.5 360.1 835.1 361.6 835.6C363 836.1 364.5 836.5 366 836.9C367.5 837.3 369 837.6 370.5 837.9C372 838.2 373.5 838.4 375 838.6C376.6 838.8 378.1 838.9 379.7 839C381.2 839.2 382.8 839.2 384.3 839.3C385.9 839.4 387.4 839.4 389 839.4C390.5 839.5 392.1 839.5 393.6 839.5C395.2 839.5 396.7 839.4 398.3 839.4C399.9 839.3 401.4 839.3 402.9 839.2C404.5 839.1 406 839 407.6 838.9C409.1 838.8 410.7 838.6 412.2 838.4C413.7 838.2 415.3 838 416.8 837.7C418.3 837.5 419.8 837.1 421.3 836.8C422.8 836.4 424.3 836 425.8 835.5C427.2 835.1 428.7 834.6 430.1 834C431.6 833.4 433 832.8 434.4 832.2C435.8 831.5 437.2 830.8 438.5 830.1C439.9 829.4 441.2 828.6 442.6 827.9C443.9 827.1 445.2 826.3 446.6 825.5C447.9 824.6 449.2 823.8 450.5 822.9C451.7 822.1 453 821.2 454.3 820.3C455.5 819.4 456.8 818.5 458 817.5C459.2 816.6 460.3 815.6 461.5 814.5C462.6 813.5 463.7 812.4 464.8 811.4C465.9 810.3 466.9 809.1 468 808C469 806.8 470 805.7 471 804.5C472 803.3 473 802.1 474 800.9C475 799.7 475.9 798.5 476.9 797.3C477.8 796.1 478.7 794.8 479.6 793.6C480.5 792.3 481.3 791 482.1 789.7C482.9 788.4 483.7 787.1 484.5 785.8C485.3 784.5 486 783.1 486.8 781.7C487.5 780.4 488.2 779 488.9 777.6C489.6 776.3 490.3 774.9 491 773.5C491.6 772.1 492.3 770.7 492.9 769.3C493.6 767.9 494.2 766.4 494.8 765C495.4 763.6 496 762.1 496.5 760.7C497.1 759.2 497.6 757.8 498.1 756.3C498.6 754.9 499.1 753.4 499.6 751.9C500.1 750.4 500.6 749 501 747.5C501.5 746 501.9 744.5 502.3 743C502.8 741.5 503.2 740 503.6 738.5C504 737 504.5 735.5 504.9 734.1C505.3 732.6 505.7 731.1 506.1 729.6C506.5 728.1 506.9 726.6 507.4 725.1C507.8 723.6 508.2 722.1 508.6 720.6C509 719.1 509.4 717.6 509.8 716.1C510.1 714.6 510.5 713.1 510.8 711.6C511.1 710.1 511.4 708.5 511.6 707C511.9 705.5 512.1 704 512.3 702.4C512.6 700.9 512.7 699.4 512.9 697.8C513.1 696.3 513.3 694.7 513.5 693.2C513.7 691.7 513.9 690.1 514.1 688.6C514.3 687 514.5 685.5 514.7 683.9C514.9 682.4 515.1 680.9 515.3 679.3C515.5 677.8 515.7 676.2 515.9 674.7C516 673.1 516.2 671.6 516.4 670C516.5 668.5 516.7 667 516.8 665.4C517 663.9 517.1 662.3 517.3 660.8C517.4 659.2 517.5 657.7 517.7 656.1C517.8 654.6 517.9 653 518 651.5C518.2 649.9 518.3 648.4 518.4 646.8C518.5 645.3 518.6 643.7 518.7 642.2C518.8 640.6 518.9 639.1 519 637.5C519.1 636 519.1 634.4 519.2 632.9C519.3 631.3 519.4 629.8 519.5 628.2C519.6 626.7 519.8 625.1 519.9 623.6C520.1 622 520.2 620.5 520.4 618.9C520.6 617.4 520.8 615.9 521.1 614.3C521.3 612.8 521.6 611.3 521.9 609.8C522.2 608.2 522.5 606.7 522.8 605.2C523.2 603.7 523.5 602.2 523.9 600.7C524.2 599.2 524.6 597.7 525 596.2C525.4 594.7 525.9 593.2 526.3 591.7C526.8 590.3 527.3 588.8 527.8 587.4C528.3 585.9 528.7 584.5 529.2 583C529.7 581.5 530.2 580.1 530.8 578.7C531.3 577.2 531.8 575.8 532.3 574.3C532.8 572.9 533.4 571.4 533.9 570C534.5 568.6 535.1 567.1 535.7 565.7C536.4 564.3 537 562.9 537.7 561.6C538.4 560.2 539.2 558.8 539.9 557.5C540.7 556.2 541.5 554.8 542.3 553.5C543.1 552.2 543.9 550.9 544.8 549.6C545.6 548.3 546.4 547 547.3 545.7C548.2 544.4 549.1 543.2 550 541.9C550.9 540.7 551.9 539.5 552.8 538.2C553.8 537 554.8 535.8 555.8 534.7C556.8 533.5 557.8 532.3 558.8 531.2C559.8 530 560.9 528.9 561.9 527.7C563 526.6 564.1 525.5 565.2 524.4C566.3 523.3 567.4 522.2 568.5 521.2C569.7 520.1 570.8 519.1 572 518.1C573.1 517.1 574.3 516.1 575.5 515.1C576.7 514.2 578 513.2 579.2 512.4C580.5 511.5 581.7 510.6 583 509.8C584.3 508.9 585.6 508.2 587 507.4C588.3 506.6 589.6 505.8 591 505.1C592.3 504.3 593.6 503.6 595 502.8C596.3 502.1 597.7 501.3 599 500.6C600.4 499.8 601.7 499.1 603.1 498.4C604.5 497.7 605.9 497 607.3 496.3C608.7 495.7 610.1 495.1 611.5 494.5C613 494 614.4 493.4 615.9 492.9C617.4 492.4 618.8 492 620.3 491.5C621.8 491.1 623.3 490.7 624.8 490.4C626.3 490 627.8 489.7 629.4 489.4C630.9 489.1 632.4 488.8 633.9 488.6C635.5 488.4 637 488.2 638.5 488C640.1 487.8 641.6 487.6 643.2 487.4C644.7 487.2 646.3 487.1 647.8 486.9C649.3 486.7 650.9 486.5 652.4 486.3C654 486.1 655.5 485.9 657 485.7C658.5 485.4 660 485 661.5 484.7C663.1 484.4 664.8 483.9 666.1 483.8C667.4 483.7 668.8 483.9 669.3 484.1C669.8 484.3 669.8 484.5 669.2 485C668.5 485.4 666.5 486 665.3 486.8C664.1 487.6 663.2 488.8 662 489.6C660.8 490.3 659.5 490.9 658.1 491.5C656.8 492.1 655.3 492.5 653.9 493C652.5 493.5 651 494 649.6 494.5C648.1 495 646.7 495.5 645.2 496.1C643.8 496.6 642.3 497.1 640.9 497.6C639.4 498.2 638 498.7 636.5 499.2C635.1 499.8 633.7 500.3 632.2 500.9C630.8 501.5 629.3 502 627.9 502.6C626.5 503.2 625.1 503.8 623.7 504.5C622.3 505.1 620.9 505.8 619.5 506.5C618.2 507.1 616.8 507.9 615.5 508.6C614.1 509.3 612.8 510.1 611.5 510.9C610.2 511.7 608.8 512.5 607.5 513.4C606.2 514.2 604.9 515 603.6 515.8C602.3 516.7 601 517.5 599.8 518.4C598.5 519.2 597.2 520.1 596 521.1C594.7 522 593.5 522.9 592.3 523.9C591.1 524.9 589.9 525.9 588.8 526.9C587.6 527.9 586.5 529 585.4 530C584.3 531.1 583.1 532.2 582.1 533.3C581.1 534.4 580.1 535.5 579.2 536.7C578.3 537.8 577.4 538.9 576.8 540C576.2 541.2 575.7 542.3 575.5 543.4C575.3 544.4 575.3 545.5 575.6 546.4C576 547.4 576.6 548.2 577.3 549C578.1 549.8 579.2 550.4 580.4 551C581.5 551.6 582.9 552 584.3 552.5C585.6 552.9 587.1 553.2 588.6 553.5C590.1 553.7 591.7 553.9 593.1 554.1C594.7 554.3 596.2 554.5 597.8 554.6C599.3 554.8 600.9 554.9 602.4 555C604 555.1 605.5 555.2 607.1 555.3C608.6 555.3 610.2 555.4 611.7 555.5C613.3 555.5 614.8 555.5 616.4 555.6C618 555.6 619.5 555.6 621.1 555.6C622.6 555.6 624.2 555.6 625.7 555.6C627.3 555.6 628.8 555.5 630.4 555.4C631.9 555.4 633.5 555.3 635 555.1C636.6 555 638.1 554.8 639.6 554.5C641.1 554.3 642.7 554 644.2 553.7C645.7 553.4 647.2 553 648.6 552.6C650.1 552.1 651.6 551.7 653.1 551.2C654.5 550.7 656 550.2 657.4 549.6C658.9 549.1 660.3 548.5 661.7 548C663.2 547.4 664.6 546.8 666 546.1C667.4 545.5 668.8 544.8 670.2 544.1C671.6 543.5 673 542.8 674.3 542C675.7 541.3 677 540.6 678.4 539.8C679.7 539 681 538.2 682.3 537.4C683.7 536.6 684.9 535.7 686.2 534.9C687.5 534 688.7 533.1 690 532.2C691.2 531.2 692.4 530.3 693.6 529.3C694.8 528.3 696 527.3 697.2 526.3C698.3 525.3 699.5 524.3 700.6 523.2C701.8 522.2 702.9 521.1 704 520.1C705.1 519 706.2 517.9 707.3 516.8C708.4 515.8 709.5 514.7 710.6 513.6C711.6 512.4 712.7 511.3 713.8 510.2C714.8 509.1 715.9 508 717 506.9C718 505.7 719.1 504.6 720.1 503.5C721.2 502.3 722.2 501.2 723.2 500C724.2 498.8 725.2 497.7 726.2 496.5C727.2 495.3 728.2 494.1 729.2 492.9C730.1 491.7 731.1 490.5 732 489.3C733 488.1 733.9 486.9 734.7 485.7C735.5 484.4 736.3 483.2 736.8 482C737.4 480.8 737.8 479.6 738 478.4C738.2 477.3 738.2 476.1 737.9 475C737.6 473.9 737 472.9 736.3 471.9C735.5 471 734.5 470.1 733.5 469.2C732.4 468.4 731.2 467.6 730 466.9C728.7 466.1 727.4 465.4 726 464.7C724.7 464 723.3 463.3 722 462.6C720.6 461.9 719.3 461.2 717.9 460.6C716.5 459.9 715.1 459.3 713.7 458.7C712.2 458.1 710.8 457.6 709.4 457C707.9 456.5 706.5 456 705 455.6C703.5 455.1 702 454.7 700.6 454.2C699.1 453.8 697.6 453.4 696.1 453.1C694.6 452.7 693 452.3 691.5 452C690 451.7 688.5 451.4 687 451.1C685.4 450.8 683.9 450.6 682.4 450.4C680.8 450.1 679.3 450 677.7 449.8C676.2 449.6 674.7 449.5 673.1 449.4C671.6 449.2 670 449.2 668.5 449.1C666.9 449 665.4 449 663.8 448.9C662.2 448.9 660.7 448.9 659.1 448.9C657.6 448.8 656.1 448.8 654.5 448.9C653 448.9 651.4 448.9 649.8 449C648.3 449 646.7 449.1 645.2 449.1C643.6 449.2 642.1 449.3 640.5 449.4C639 449.6 637.4 449.7 635.9 449.9C634.4 450.1 632.8 450.3 631.3 450.5C629.8 450.8 628.2 451.1 626.7 451.4C625.2 451.7 623.7 452 622.2 452.4C620.7 452.8 619.2 453.2 617.7 453.6C616.2 454.1 614.8 454.5 613.3 455C611.8 455.5 610.4 456 608.9 456.6C607.5 457.1 606.1 457.7 604.7 458.3C603.3 459 601.9 459.6 600.5 460.3C599.1 461 597.8 461.7 596.4 462.5C595.1 463.2 593.7 464 592.4 464.7C591 465.5 589.7 466.2 588.4 467C587 467.8 585.7 468.5 584.4 469.3C583 470.1 581.7 471 580.5 471.8C579.2 472.7 577.9 473.5 576.7 474.4C575.4 475.4 574.2 476.3 573 477.3C571.8 478.2 570.6 479.2 569.4 480.3C568.3 481.3 567.1 482.3 566 483.4C564.8 484.4 563.7 485.5 562.6 486.6C561.5 487.6 560.3 488.7 559.2 489.8C558.1 490.9 557 492 556 493.1C554.9 494.3 553.8 495.4 552.7 496.5C551.7 497.6 550.6 498.7 549.5 499.9C548.5 501 547.4 502.1 546.4 503.3C545.3 504.4 544.3 505.6 543.3 506.7C542.3 507.9 541.5 509.4 540.4 510.3C539.3 511.1 537.4 511.7 536.7 512C536 512.3 536.6 512.3 536 511.9C535.5 511.4 534 510.5 533.6 509.3C533.2 508.1 533.6 506.3 533.7 504.8C533.8 503.3 534.1 501.8 534.3 500.2C534.5 498.7 534.7 497.1 534.9 495.6C535.1 494.1 535.3 492.5 535.4 491C535.6 489.4 535.8 487.9 536 486.3C536.1 484.8 536.3 483.3 536.5 481.7C536.6 480.2 536.8 478.6 537 477.1C537.1 475.5 537.3 474 537.5 472.4C537.7 470.9 537.8 469.4 538.1 467.8C538.3 466.3 538.5 464.8 538.8 463.2C539.1 461.7 539.4 460.2 539.7 458.7C540 457.2 540.3 455.6 540.6 454.1C541 452.6 541.3 451.1 541.6 449.6C541.9 448.1 542.2 446.6 542.5 445C542.8 443.5 543.1 442 543.4 440.5C543.7 438.9 544 437.4 544.3 435.9C544.6 434.4 544.9 432.9 545.3 431.3C545.6 429.8 546 428.3 546.4 426.8C546.8 425.3 547.2 423.8 547.6 422.3C548 420.8 548.4 419.3 548.8 417.8C549.2 416.3 549.6 414.8 550 413.3C550.4 411.8 550.9 410.4 551.4 408.9C551.8 407.4 552.3 405.9 552.9 404.5C553.4 403 554 401.6 554.5 400.2C555.1 398.7 555.7 397.3 556.3 395.9C557 394.5 557.6 393.1 558.3 391.7C558.9 390.3 559.6 388.9 560.2 387.6C560.9 386.2 561.5 384.8 562.1 383.4C562.8 382 563.4 380.6 564.1 379.2C564.8 377.8 565.4 376.4 566.1 375C566.8 373.6 567.5 372.3 568.3 370.9C569.1 369.6 569.8 368.3 570.7 367C571.5 365.7 572.3 364.4 573.2 363.1C574.1 361.8 575 360.6 575.8 359.3C576.7 358.1 577.6 356.8 578.5 355.6C579.4 354.3 580.3 353.1 581.2 351.9C582.2 350.6 583.1 349.4 584 348.2C585 347 585.9 345.8 586.9 344.6C587.9 343.4 588.9 342.2 590 341.1C591 339.9 592.1 338.8 593.1 337.7C594.2 336.6 595.3 335.4 596.4 334.3C597.5 333.3 598.6 332.2 599.7 331.1C600.8 330 602 329 603.1 328C604.3 326.9 605.5 325.9 606.6 324.9C607.8 323.9 609 323 610.3 322.1C611.5 321.1 612.7 320.2 614 319.3C615.2 318.3 616.5 317.5 617.8 316.6C619.1 315.7 620.4 314.9 621.7 314.1C623 313.3 624.3 312.5 625.7 311.7C627 310.9 628.4 310.2 629.7 309.4C631.1 308.7 632.5 308 633.9 307.2C635.2 306.5 636.6 305.8 638 305.1C639.4 304.4 640.8 303.8 642.2 303.1C643.6 302.5 645 301.8 646.4 301.2C647.8 300.6 649.2 300 650.7 299.5C652.1 298.9 653.6 298.4 655 297.9C656.5 297.4 657.9 297 659.4 296.5C660.9 296.1 662.4 295.7 663.9 295.3C665.4 294.9 666.9 294.5 668.4 294.2C669.9 293.9 671.4 293.6 673 293.3C674.5 293 676 292.8 677.6 292.5C679.1 292.3 680.6 292.1 682.2 291.9C683.7 291.7 685.2 291.5 686.8 291.2C688.3 291 689.8 290.8 691.4 290.5C692.9 290.2 694.4 289.9 695.9 289.6C697.4 289.3 698.9 288.9 700.5 288.6C702 288.2 703.5 287.9 705 287.5C706.5 287.2 708 286.9 709.5 286.6C711.1 286.3 712.6 286 714.1 285.7C715.6 285.4 717.2 285.1 718.7 284.9C720.2 284.6 721.7 284.3 723.2 284C724.7 283.7 726.3 283.3 727.8 283C729.3 282.7 730.8 282.4 732.3 282.1C733.8 281.7 735.4 281.4 736.9 281.2C738.4 280.9 739.9 280.6 741.5 280.3C743 280.1 744.5 279.8 746.1 279.6C747.6 279.4 749.1 279.2 750.7 279.1C752.2 278.9 753.8 278.7 755.3 278.8C756.8 279 758.8 279.5 759.6 279.9C760.5 280.2 760.6 280.4 760.3 280.9C760.1 281.4 759.2 282.3 758.1 283C757.1 283.7 755.4 284.5 754 285.2C752.7 286 751.3 286.7 749.9 287.4C748.5 288 747.1 288.5 745.6 289.1C744.2 289.7 742.8 290.2 741.3 290.8C739.9 291.4 738.5 292 737 292.5C735.6 293.1 734.2 293.7 732.7 294.3C731.3 294.8 729.9 295.4 728.4 296C727 296.5 725.5 297.1 724.1 297.6C722.6 298.2 721.2 298.7 719.8 299.2C718.3 299.7 716.8 300.3 715.4 300.7C713.9 301.2 712.4 301.7 710.9 302.2C709.4 302.6 708 303.1 706.5 303.5C705 303.9 703.5 304.4 702 304.8C700.5 305.2 699 305.7 697.5 306.1C696 306.5 694.5 306.9 693 307.4C691.6 307.8 690.1 308.2 688.6 308.6C687.1 309.1 685.6 309.5 684.2 310C682.7 310.5 681.3 311 679.8 311.5C678.4 312 677 312.6 675.6 313.2C674.1 313.7 672.7 314.3 671.3 314.9C669.9 315.5 668.5 316.1 667.1 316.8C665.7 317.4 664.3 318 662.8 318.6C661.4 319.2 660 319.8 658.6 320.4C657.2 321.1 655.8 321.7 654.4 322.3C653 323 651.6 323.6 650.3 324.3C648.9 325 647.5 325.7 646.2 326.5C644.9 327.3 643.6 328.1 642.3 328.9C641 329.7 639.7 330.6 638.4 331.5C637.2 332.4 635.9 333.3 634.7 334.2C633.4 335.1 632.2 336.1 631 337.1C629.8 338 628.6 339 627.4 340C626.2 341 625.1 342 623.9 343.1C622.8 344.1 621.7 345.2 620.5 346.3C619.4 347.4 618.3 348.5 617.3 349.6C616.2 350.7 615.2 351.8 614.1 353C613.1 354.1 612.1 355.3 611.1 356.5C610.1 357.7 609.1 358.8 608.1 360C607.1 361.2 606.2 362.5 605.2 363.7C604.3 364.9 603.3 366.1 602.3 367.3C601.4 368.5 600.4 369.8 599.6 371C598.7 372.3 597.8 373.6 597.1 374.9C596.4 376.2 595.6 377.9 595.2 379.1C594.8 380.3 594.6 381.5 594.7 382C594.8 382.4 595 382.1 595.9 382C596.9 381.9 599 381.6 600.4 381.2C601.9 380.7 603.2 379.9 604.7 379.3C606.1 378.6 607.5 378 608.9 377.3C610.3 376.7 611.7 376.1 613.2 375.6C614.6 375.1 616.1 374.6 617.6 374.1C619 373.7 620.5 373.2 622 372.8C623.5 372.4 625 372.1 626.5 371.7C628 371.4 629.6 371.1 631.1 370.8C632.6 370.5 634.1 370.2 635.7 369.9C637.2 369.7 638.7 369.4 640.2 369.1C641.8 368.9 643.3 368.6 644.8 368.4C646.4 368.2 647.9 368 649.5 367.8C651 367.6 652.5 367.4 654.1 367.3C655.6 367.2 657.2 367 658.7 367C660.3 366.9 661.8 366.8 663.4 366.7C664.9 366.7 666.5 366.6 668 366.6C669.6 366.5 671.1 366.5 672.7 366.5C674.2 366.4 675.8 366.4 677.4 366.4C678.9 366.4 680.5 366.3 682 366.3C683.6 366.3 685.1 366.3 686.7 366.2C688.2 366.2 689.8 366.2 691.4 366.1C692.9 366.1 694.5 366 696 365.9C697.6 365.9 699.1 365.8 700.7 365.7C702.2 365.6 703.8 365.5 705.3 365.4C706.9 365.3 708.4 365.2 710 365C711.5 364.8 713 364.6 714.6 364.4C716.1 364.2 717.6 363.9 719.2 363.7C720.7 363.4 722.2 363.1 723.7 362.8C725.2 362.4 726.7 362.1 728.2 361.7C729.8 361.4 731.3 361 732.8 360.7C734.3 360.3 735.8 360 737.3 359.6C738.8 359.2 740.3 358.8 741.7 358.3C743.2 357.9 744.7 357.4 746.1 356.9C747.6 356.4 749 355.8 750.4 355.2C751.9 354.6 753.3 354 754.7 353.3C756.1 352.7 757.5 352 758.8 351.3C760.2 350.6 761.6 349.8 763 349.1C764.3 348.4 765.7 347.6 767 346.9C768.4 346.1 769.7 345.4 771.1 344.6C772.4 343.8 773.7 343 775 342.2C776.3 341.3 777.6 340.5 778.9 339.6C780.2 338.7 781.4 337.8 782.6 336.9C783.9 336 785 335 786.2 334C787.4 333 788.6 332 789.7 330.9C790.8 329.9 792 328.8 793.1 327.7C794.2 326.7 795.3 325.6 796.4 324.4C797.5 323.4 798.5 322.2 799.6 321.1C800.6 320 801.6 318.8 802.6 317.6C803.6 316.4 804.6 315.2 805.5 314C806.5 312.7 807.4 311.5 808.3 310.2C809.2 309 810 307.7 810.9 306.4C811.8 305.1 812.6 303.8 813.5 302.5C814.3 301.2 815.2 299.9 816 298.6C816.8 297.3 817.6 296 818.4 294.7C819.2 293.3 820 292 820.7 290.7C821.5 289.3 822.2 287.9 822.8 286.5C823.5 285.2 824.1 283.7 824.7 282.3C825.3 280.9 825.8 279.4 826.4 278C826.9 276.5 827.4 275.1 827.9 273.6C828.4 272.1 828.9 270.7 829.3 269.2C829.8 267.7 830.3 266.2 830.7 264.7C831.1 263.2 831.6 261.8 832 260.3C832.4 258.8 832.8 257.3 833.2 255.8C833.6 254.3 834 252.8 834.4 251.3C834.8 249.8 835.1 248.3 835.5 246.8C835.8 245.2 836.1 243.7 836.4 242.2C836.7 240.7 837 239.2 837.2 237.6C837.5 236.1 837.7 234.5 837.9 233C838.1 231.5 838.3 229.9 838.5 228.4C838.7 226.9 838.9 225.3 839.1 223.8C839.3 222.2 839.5 220.7 839.7 219.1C839.9 217.6 840.2 216.1 840.4 214.5C840.6 213 840.9 211.5 841 209.9C841.2 208.4 841.5 206.8 841.4 205.3C841.3 203.8 841.1 201.6 840.5 201C839.8 200.4 838.7 201.3 837.6 201.8ZM456.9 207.3C456.1 207.5 454.7 208 453.6 208.6C452.5 209.2 451.4 210 450.3 210.9C449.3 211.8 448.2 212.9 447.1 213.9C446.1 215 445 216.1 444 217.2C442.9 218.4 441.9 219.5 440.9 220.7C439.9 221.9 438.9 223.1 438 224.3C437 225.5 436.1 226.8 435.2 228C434.3 229.3 433.4 230.5 432.6 231.8C431.8 233.1 431 234.4 430.2 235.7C429.4 237.1 428.7 238.4 427.9 239.8C427.2 241.1 426.5 242.5 425.7 243.8C425 245.2 424.3 246.6 423.6 248C422.9 249.3 422.2 250.7 421.5 252.1C420.8 253.5 420.1 254.9 419.5 256.3C418.8 257.7 418.1 259.1 417.5 260.4C416.9 261.8 416.3 263.3 415.7 264.7C415.1 266.1 414.6 267.6 414.1 269C413.5 270.5 413.1 271.9 412.6 273.4C412.1 274.9 411.7 276.4 411.2 277.9C410.8 279.4 410.4 280.9 410 282.4C409.6 283.9 409.2 285.4 408.9 286.9C408.6 288.4 408.3 289.9 408 291.4C407.7 293 407.5 294.5 407.3 296C407.1 297.6 407 299.1 406.8 300.7C406.7 302.2 406.6 303.7 406.5 305.3C406.4 306.8 406.4 308.4 406.3 310C406.3 311.5 406.3 313.1 406.3 314.6C406.3 316.2 406.3 317.7 406.4 319.3C406.4 320.8 406.5 322.4 406.6 323.9C406.7 325.4 406.9 327 407 328.5C407.2 330.1 407.4 331.6 407.7 333.1C407.9 334.6 408.2 336.2 408.6 337.7C408.9 339.2 409.3 340.7 409.7 342.2C410.1 343.7 410.5 345.1 411 346.6C411.4 348.1 411.9 349.6 412.4 351.1C412.9 352.5 413.4 354 413.9 355.4C414.5 356.9 415.1 358.3 415.7 359.7C416.3 361.1 416.9 362.5 417.6 363.9C418.3 365.3 419 366.7 419.8 368C420.5 369.4 421.3 370.7 422.1 372C422.9 373.3 423.7 374.6 424.6 375.9C425.4 377.2 426.3 378.5 427.2 379.8C428 381 428.9 382.3 429.9 383.5C430.8 384.7 431.7 385.9 432.7 387.1C433.7 388.3 434.7 389.5 435.7 390.6C436.7 391.7 437.8 392.9 438.8 394C439.9 395.1 441 396.2 442.1 397.3C443.2 398.4 444.3 399.5 445.3 400.6C446.4 401.7 447.5 402.9 448.5 404C449.6 405.1 450.6 406.6 451.7 407.2C452.9 407.9 454.6 407.9 455.2 407.9C455.9 408 455.5 408.3 455.8 407.6C456 406.8 456.9 404.9 456.8 403.5C456.7 402.1 455.8 400.6 455.3 399.1C454.8 397.7 454.3 396.2 453.8 394.8C453.3 393.3 452.9 391.8 452.5 390.3C452.1 388.8 451.7 387.3 451.3 385.8C450.9 384.3 450.5 382.8 450.1 381.3C449.7 379.8 449.3 378.3 448.9 376.8C448.5 375.3 448.1 373.8 447.7 372.3C447.4 370.8 447 369.3 446.7 367.8C446.4 366.3 446.1 364.7 445.9 363.2C445.6 361.7 445.4 360.2 445.2 358.6C445 357.1 444.9 355.5 444.7 354C444.6 352.4 444.5 350.9 444.4 349.3C444.3 347.8 444.2 346.2 444.1 344.7C444.1 343.1 444 341.6 444 340C443.9 338.5 443.9 336.9 443.9 335.4C443.8 333.8 443.8 332.2 443.9 330.7C443.9 329.1 443.9 327.6 443.9 326C444 324.5 444 323 444.1 321.4C444.1 319.8 444.2 318.3 444.3 316.7C444.4 315.2 444.5 313.6 444.6 312.1C444.7 310.6 444.9 309 445 307.5C445.2 305.9 445.3 304.4 445.5 302.9C445.7 301.4 445.9 299.8 446.2 298.3C446.5 296.9 446.7 295.3 447.3 294C447.8 292.6 448.7 291.4 449.5 290.1C450.4 288.9 451.6 287.3 452.3 286.6C452.9 286 453.3 285.8 453.6 286.2C453.9 286.5 454 287.5 454 288.7C454 289.9 453.7 291.8 453.6 293.3C453.5 294.9 453.3 296.4 453.2 298C453.1 299.5 453.1 301.1 453.1 302.6C453.1 304.2 453.2 305.7 453.2 307.3C453.3 308.8 453.4 310.4 453.5 311.9C453.6 313.5 453.8 315 453.9 316.6C454 318.1 454.2 319.7 454.4 321.2C454.5 322.8 454.7 324.3 454.9 325.8C455 327.4 455.2 328.9 455.4 330.4C455.6 332 455.7 333.5 455.9 335.1C456.2 336.6 456.4 338.2 456.6 339.7C456.9 341.2 457.1 342.7 457.4 344.3C457.7 345.8 458.1 347.3 458.4 348.8C458.7 350.3 459.1 351.8 459.5 353.3C459.8 354.8 460.2 356.4 460.6 357.9C460.9 359.4 461.3 360.9 461.7 362.4C462.1 363.9 462.5 365.4 462.9 366.9C463.3 368.4 463.6 369.9 464.1 371.3C464.5 372.8 465 374.3 465.5 375.7C466 377.2 466.6 378.6 467.1 380.1C467.6 381.6 467.8 383.1 468.4 384.6C468.9 386 469.7 387.9 470.1 388.7C470.6 389.5 470.5 389.5 471.2 389.4C471.9 389.4 473.1 389.2 474.1 388.4C475.1 387.8 476.3 386.3 477.2 385.1C478.2 383.9 479 382.6 479.8 381.3C480.6 380 481.2 378.6 481.9 377.2C482.6 375.9 483.3 374.5 484.1 373.1C484.8 371.7 485.5 370.4 486.2 369C486.9 367.6 487.7 366.3 488.4 364.9C489.1 363.5 489.8 362.2 490.5 360.8C491.2 359.4 491.9 358 492.6 356.7C493.2 355.3 493.9 353.9 494.5 352.5C495.1 351 495.7 349.6 496.3 348.2C496.8 346.7 497.4 345.3 497.8 343.8C498.3 342.4 498.7 340.9 499.1 339.4C499.5 337.9 499.9 336.4 500.2 334.9C500.5 333.4 500.8 331.8 501 330.3C501.3 328.8 501.5 327.2 501.7 325.7C501.9 324.2 502.1 322.7 502.2 321.1C502.4 319.6 502.5 318 502.6 316.5C502.7 314.9 502.8 313.4 502.8 311.8C502.8 310.3 502.8 308.7 502.7 307.2C502.7 305.6 502.6 304.1 502.5 302.5C502.4 301 502.3 299.4 502.1 297.9C501.9 296.4 501.7 294.8 501.5 293.3C501.3 291.7 501.1 290.2 500.8 288.7C500.6 287.1 500.3 285.6 499.9 284.1C499.6 282.6 499.3 281.1 498.9 279.6C498.5 278.1 498 276.7 497.5 275.2C497 273.8 496.5 272.3 495.9 270.9C495.4 269.5 494.8 268 494.1 266.6C493.5 265.2 492.8 263.8 492.2 262.5C491.5 261.1 490.8 259.7 490.1 258.4C489.4 257 488.7 255.6 487.9 254.2C487.2 252.9 486.5 251.5 485.8 250.1C485.1 248.8 484.4 247.4 483.7 246C483 244.6 482.3 243.3 481.6 241.9C480.8 240.5 480.1 239.2 479.4 237.8C478.6 236.5 477.9 235.1 477.1 233.8C476.4 232.4 475.6 231.1 474.8 229.8C474.1 228.4 473.3 227.1 472.6 225.7C471.8 224.4 471.1 223 470.4 221.6C469.7 220.3 469 218.9 468.3 217.5C467.6 216.2 466.9 214.9 466.2 213.7C465.4 212.5 464.7 211.3 463.9 210.4C463 209.4 462.1 208.6 461.2 208.1C460.3 207.6 458.9 207.3 458.2 207.2C457.5 207.1 457.6 207.1 456.9 207.3Z"/></svg>
